<svg id="svg3215" xmlns="http://www.w3.org/2000/svg" viewBox="0 0 814.96 482.6"><title>WiFi_Logo-01</title><g id="layer1"><g id="g3250"><path id="path112" d="M394.24,17.64a223.3,223.3,0,0,0-176.19,85.94H179.7A109.23,109.23,0,0,0,70.58,212.67v65.79A109.27,109.27,0,0,0,179.7,387.58h45.38C305.82,481,447,491.28,540.44,410.53a224,224,0,0,0,22.95-22.95h43.69A109.26,109.26,0,0,0,716.24,278.46V212.67A109.24,109.24,0,0,0,607.08,103.58H570.42A223.3,223.3,0,0,0,394.24,17.64Z" style="fill:#24ac24;fill-rule:evenodd"/><path id="path118" d="M408.3,278.45V212.69a88.23,88.23,0,0,1,88.12-88.12H607.08a88.24,88.24,0,0,1,88.14,88.12v65.76a88.24,88.24,0,0,1-88.14,88.12H363.43A109,109,0,0,0,408.3,278.45Z" style="fill:#fff"/><path id="path122" d="M334,198.35c-12,0-20.91-6.92-20.91-18,0-10.37,8.93-17.67,20.91-17.67,12.57,0,21.29,7.3,21.29,17.67C355.25,191.43,346.53,198.35,334,198.35ZM315.69,312.58V209.4h36.52V312.58Z" style="fill:#fff"/><path id="path124" d="M497.05,204v31.75h75.57v33.31H497.05v43.5H457.88v-142H580.66V204Z" style="fill:#24ac24"/><path id="path126" d="M621.67,198.35c-12,0-20.91-6.92-20.91-18,0-10.37,9-17.67,20.91-17.67,12.56,0,21.28,7.3,21.28,17.67C643,191.43,634.23,198.35,621.67,198.35ZM603.42,312.58V209.4h36.5V312.58Z" style="fill:#24ac24"/></g></g><polygon points="202.44 273.16 202.44 170.28 163.28 170.28 163.28 273.16 163.28 273.16 163.28 312.32 163.28 312.32 202.44 312.32 286.06 312.32 286.06 273.16 202.44 273.16" style="fill:#fff"/></svg>